<svg xmlns="http://www.w3.org/2000/svg" viewBox="0 0 512 512">
  <defs><linearGradient id="g" x1="64" y1="32" x2="448" y2="480" gradientUnits="userSpaceOnUse"><stop stop-color="#3a57e8"/><stop offset="1" stop-color="#6c3ce1"/></linearGradient></defs>
  <rect width="512" height="512" rx="112" fill="#151824"/>
  <rect x="64" y="64" width="384" height="384" rx="104" fill="url(#g)"/>
  <path d="M144 172v168h48v-64h72v64h48V172h-48v60h-72v-60h-48Zm190 0c-35 0-58 20-58 51 0 30 20 43 53 52 22 6 30 11 30 21 0 9-8 15-23 15-18 0-35-7-49-19l-25 37c19 17 44 25 73 25 43 0 70-22 70-58 0-30-18-44-55-54-21-6-29-10-29-19 0-8 7-14 20-14 15 0 30 5 43 15l23-38c-18-12-38-18-63-18Z" fill="#fff"/>
  <circle cx="408" cy="104" r="24" fill="#2dd4bf"/><circle cx="408" cy="104" r="10" fill="#ecfdf5"/>
</svg>
